/* XPM */
static char *bitcoin16[] = {
/* columns rows colors chars-per-pixel */
"16 16 152 2 ",
"   c #0F3C68",
".  c #0E3F69",
"X  c #0D3D6C",
"o  c #0D3E6D",
"O  c #113B67",
"+  c #103E6A",
"@  c #00476B",
"#  c #0F456E",
"$  c #00486B",
"%  c #18426C",
"&  c #19446C",
"*  c #18446F",
"=  c #19446F",
"-  c #0E4E71",
";  c #174572",
":  c #1A4670",
">  c #184572",
",  c #005674",
"<  c #005876",
"1  c #15597B",
"2  c #00647D",
"3  c #00677F",
"4  c #0B637F",
"5  c #13607D",
"6  c #006F83",
"7  c #126786",
"8  c #007486",
"9  c #05708B",
"0  c #007B8B",
"q  c #11718C",
"w  c #037B92",
"e  c #3C6084",
"r  c #3F6587",
"t  c #27768E",
"y  c #2A738C",
"u  c #39718E",
"i  c #3D7993",
"p  c #3C7A94",
"a  c #4C7391",
"s  c #407993",
"d  c #517D97",
"f  c #00818E",
"g  c #0E8695",
"h  c #018A9B",
"j  c #128094",
"k  c #04919A",
"l  c #00969B",
"z  c #04969D",
"x  c #009D9F",
"c  c #398E9F",
"v  c #3E8C9F",
"b  c #0095A1",
"n  c #0C96A0",
"m  c #00A4A3",
"M  c #09A2A7",
"N  c #00A9A6",
"B  c #00A5AB",
"V  c #08A9A9",
"C  c #00B1AB",
"Z  c #00B5AE",
"A  c #00B0B1",
"S  c #00BDB0",
"D  c #07BAB6",
"F  c #5B839D",
"G  c #67839E",
"H  c #69849F",
"J  c #4FB7BB",
"K  c #55B4BA",
"L  c #5EB0B9",
"P  c #63A2B1",
"I  c #63A3B1",
"U  c #60A6B3",
"Y  c #64AEB8",
"T  c #61B4BC",
"R  c #00C0B2",
"E  c #00C2BD",
"W  c #01CDC0",
"Q  c #00CDC4",
"!  c #04CFC5",
"~  c #1ECAC1",
"^  c #1ECEC3",
"/  c #00D9C5",
"(  c #02D9CA",
")  c #02DEC9",
"_  c #00DDCC",
"`  c #34C4C0",
"'  c #34C8C2",
"]  c #24D7C9",
"[  c #22D9CB",
"{  c #2BDBCD",
"}  c #29DBCE",
"|  c #2FD9CC",
" . c #03E1CB",
".. c #00E6CD",
"X. c #00E7CF",
"o. c #00EBCF",
"O. c #00EDD1",
"+. c #00ECD2",
"@. c #00EED2",
"#. c #00EED4",
"$. c #00F0D4",
"%. c #00F2D8",
"&. c #00F4D9",
"*. c #00F4DA",
"=. c #29E1D2",
"-. c #3EE6D6",
";. c #35EFDB",
":. c #37EEDA",
">. c #3BEBD9",
",. c #25F1DB",
"<. c #26F3DC",
"1. c #02FCE1",
"2. c #00FDE2",
"3. c #00FFE3",
"4. c #02FFE3",
"5. c #00FFE5",
"6. c #5AC0C2",
"7. c #5FC5C6",
"8. c #5BC8C7",
"9. c #60CFCC",
"0. c #95A8BB",
"q. c #9BB5C4",
"w. c #9FB8C6",
"e. c #8DCBCF",
"r. c #9AC8CF",
"t. c #9AC9D0",
"y. c #9ACCD2",
"u. c #86DFDB",
"i. c #87DFDB",
"p. c #91D1D4",
"a. c #93DBDA",
"s. c #99DFDE",
"d. c #9CDCDC",
"f. c #ABD1D8",
"g. c #9DE0DF",
"h. c #A2E9E5",
"j. c #ABF7EF",
"k. c #B1F8F1",
"l. c #DFE3E9",
"z. c #DDE8EC",
"x. c #C0FAF3",
"c. c #DFF8F6",
"v. c #E8EAEF",
"b. c #E8EFF2",
"n. c #E3F9F7",
"m. c #FAFBFC",
"M. c #FBFDFD",
"N. c #F8FEFE",
"B. c #F9FEFE",
"V. c #FEFDFE",
"C. c #FEFEFE",
"Z. c None",
/* pixels */
"Z.Z.Z.Z.Z._ X.#.$.%.Z.Z.Z.Z.Z.Z.",
"Z.Z.Z.D Q ( =.>.<.1.5.*.Z.Z.Z.Z.",
"Z.Z.M A 9.c.C.M.M.;.o.1.*.Z.Z.Z.",
"Z.g b p.C.a.' ^ }  .k.x.5.+.Z.Z.",
"Z.w Y C.J x N Z S [ M.j.o.5.Z.Z.",
"5 q b.y.f z 7.s.u.h.] ) :.1.+.Z.",
"- p C.c 8 T C.C.C.u.S | C.,.+.Z.",
". d M.t 3 f.C.C.C.g.C ~ C.-.o.Z.",
"O r C.i < P C.C.C.6.m ` C.} / Z.",
"% ; v.w.$ 4 P r.L k l d.n.! W Z.",
"Z.o H C.F @ , 2 8 0 K C.8.E Z.Z.",
"Z.= o 0.C.q.s y v r.C.e.B V Z.Z.",
"Z.Z.= o G l.C.m.C.z.U h n Z.Z.Z.",
"Z.Z.Z.= o > e a u 7 9 j Z.Z.Z.Z.",
"Z.Z.Z.Z.Z.= + . # 1 Z.Z.Z.Z.Z.Z.",
"Z.Z.Z.Z.Z.Z.Z.Z.Z.Z.Z.Z.Z.Z.Z.Z."
};
