/* XPM */
static char *bitcoin32[] = {
/* columns rows colors chars-per-pixel */
"32 32 181 2 ",
"   c #093662",
".  c #0D3A65",
"X  c #0C3F68",
"o  c #133F69",
"O  c #103C67",
"+  c #0C446B",
"@  c #0B486E",
"#  c #024168",
"$  c #1B456E",
"%  c #0A4E71",
"&  c #034E71",
"*  c #1C4771",
"=  c #1C4A75",
"-  c #174D76",
";  c #045575",
":  c #0D5475",
">  c #045C79",
",  c #195276",
"<  c #165C7C",
"1  c #195C7E",
"2  c #165478",
"3  c #244C74",
"4  c #03647E",
"5  c #15607E",
"6  c #375C80",
"7  c #036C83",
"8  c #096A83",
"9  c #076680",
"0  c #166581",
"q  c #1A6285",
"w  c #146B85",
"e  c #176D8A",
"r  c #02778A",
"t  c #037C8D",
"y  c #0D798C",
"u  c #087287",
"i  c #13738A",
"p  c #127A8E",
"a  c #137D91",
"s  c #3D6385",
"d  c #336F8B",
"f  c #387992",
"g  c #416486",
"h  c #477692",
"j  c #4C7693",
"k  c #537C97",
"l  c #00818F",
"z  c #028291",
"x  c #018A95",
"c  c #0C8E9A",
"v  c #0B8694",
"b  c #118293",
"n  c #108997",
"m  c #13869A",
"M  c #118D9A",
"N  c #198797",
"B  c #02939B",
"V  c #0D949E",
"C  c #08989F",
"Z  c #00999E",
"A  c #10919C",
"S  c #1C919D",
"D  c #37879A",
"F  c #0F97A2",
"G  c #039BA0",
"H  c #0B9BA2",
"J  c #1193A2",
"K  c #3A9AA6",
"L  c #00A3A4",
"P  c #0CA2A6",
"I  c #0DA5AA",
"U  c #01ABA9",
"Y  c #0AACAC",
"T  c #14A7AA",
"R  c #01B3AE",
"E  c #09B1AF",
"W  c #0CAFB1",
"Q  c #05B6B1",
"!  c #09B5B2",
"~  c #03BCB4",
"^  c #08BBB5",
"/  c #0ABCBA",
"(  c #1AB2B1",
")  c #32A9AF",
"_  c #3AAAB0",
"`  c #3DB9BA",
"'  c #56859D",
"]  c #558FA3",
"[  c #449AA8",
"{  c #5E96A9",
"}  c #6497AA",
"|  c #69A7B5",
" . c #60B2BA",
".. c #00C1B6",
"X. c #05C5BA",
"o. c #0AC3BF",
"O. c #02CCBD",
"+. c #00D0BF",
"@. c #2EC2BE",
"#. c #38C0BE",
"$. c #6AB9C0",
"%. c #06CCC0",
"&. c #08CCC5",
"*. c #03D4C3",
"=. c #00DCC7",
"-. c #01DCC9",
";. c #36CAC4",
":. c #26D8CB",
">. c #3DDED1",
",. c #01E4CD",
"<. c #0DE4CF",
"1. c #00EBCF",
"2. c #03E4D1",
"3. c #00ECD3",
"4. c #0FEDD5",
"5. c #12EED5",
"6. c #00F1D7",
"7. c #00F5DA",
"8. c #2CE2D1",
"9. c #2DEFDA",
"0. c #22ECD7",
"q. c #3DE6D6",
"w. c #38ECDA",
"e. c #35F0DC",
"r. c #00FEE2",
"t. c #5DC1C4",
"y. c #49DAD0",
"u. c #55DBD2",
"i. c #59DBD4",
"p. c #66C7C8",
"a. c #7DDEDA",
"s. c #48E7D8",
"d. c #55E1D6",
"f. c #65EADE",
"g. c #71E7DD",
"h. c #7FEBE2",
"j. c #7DF6E8",
"k. c #8CAABB",
"l. c #86A9BA",
"z. c #93AABC",
"x. c #9DAFC1",
"c. c #86B6C2",
"v. c #91BAC6",
"b. c #A5B6C6",
"n. c #8ACACF",
"m. c #9CC4CE",
"M. c #83CFD1",
"N. c #9BC8D0",
"B. c #89D7D7",
"V. c #9CD9DB",
"C. c #A4C9D2",
"Z. c #A7D6DA",
"A. c #BADADF",
"S. c #90E1DE",
"D. c #8AEBE3",
"F. c #98E5E1",
"G. c #A0E2E1",
"H. c #BCEBEA",
"J. c #BAE9E8",
"K. c #A2F8EF",
"L. c #C4D2DB",
"P. c #C9D7DF",
"I. c #C6DFE4",
"U. c #C9DFE4",
"Y. c #D8DFE6",
"T. c #C3E1E4",
"R. c #C3ECEB",
"E. c #CAEFEE",
"W. c #D4E6EA",
"Q. c #DCEDEF",
"!. c #C3FAF4",
"~. c #D6F2F1",
"^. c #DBF5F4",
"/. c #DCFBF8",
"(. c #E0E6EB",
"). c #E2EBEF",
"_. c #E4F4F4",
"`. c #EDFBFA",
"'. c #FFFFFF",
"]. c #F3F7F8",
"[. c None",
/* pixels */
"[.[.[.[.[.[.[.[.[.[.[.[.2.3.3.3.6.6.6.[.[.[.[.[.[.[.[.[.[.[.[.[.",
"[.[.[.[.[.[.[.[.[.*.-.4.3.3.2.3.6.7.r.r.7.7.[.[.[.[.[.[.[.[.[.[.",
"[.[.[.[.[.[.[./ &.&.O.+.*.=.-.,.3.3.3.3.6.7.r.7.[.[.[.[.[.[.[.[.",
"[.[.[.[.[.[.! o.^ X...X.&.8.q.s.w.0.3.3.3.3.3.r.7.[.[.[.[.[.[.[.",
"[.[.[.[.[.W W Y E R ;.F.^.'.'.'.'.'.!.5.3.3.3.3.7.r.[.[.[.[.[.[.",
"[.[.[.[.I I P L ( S.'.'.'.'.'.'.'.'.'.9.3.1.1.1.3.7.r.[.[.[.[.[.",
"[.[.[.A F V B ` _.'.'.'.H.g.u.y.u.h.d.,.1.e.K.j.3.3.7.7.[.[.[.[.",
"[.[.a J M x _ ].'.'.J.#.R R ..X.O.*.-.,.<.`.'.'.j.1.3.r.3.[.[.[.",
"[.[.m b v S _.'.'.M.L L E ^ ^ X.o.O.*.*.8.'.'.'.K.1.3.3.r.[.[.[.",
"[.e a p r Z.'.'.n.x P I Y E Q ^ X.O.O.+.h.'.'./.9.3.3.3.r.1.[.[.",
"[.e i 8 D '.'.J.x V H P I L U ! ~ ~ ..u.`.g.8.<.1.1.3.3.6.6.[.[.",
"[.e w 4 m.'.'.K l A V C Z p.H.~.R.S.H.'.y.O.*.=.,.w.4.3.3.r.[.[.",
"< q 5 w Q.'.I.r b n A V Z.'.'.'.'.'.'.J...O.*.*.f.'.!.<.3.r.3.[.",
", 1 : f '.'.c.7 p b l $.'.'.'.'.'.'.'.S.~ X.O.O.D.'.'.5.3.7.3.[.",
"* 2 % ' '.'.{ 7 p y l T.'.'.'.'.'.'.'.J.Q ^ X.X.i.'.'.q.,.6.3.[.",
"$ * + ' '.'.] 4 i i p Q.'.'.'.'.'.'.'.~.R ! X...y.'.'.s.=.,.3.[.",
"$ $ . k '.'.{ > w i u T.'.'.'.'.'.'.'.J.U E Q ~ u.'.'.>.*.,.,.[.",
"$ * o g '.'.l.; 0 w 4 | '.'.'.'.'.'.'.t.L Y ! R B.'.'.:.+.,.,.[.",
"$ = $ $ W.'.P.: 5 0 w 8 C.'.'.'.'.'.V.B P P Y R E.'.^.X.%.2.*.[.",
"[.= $   z.'.'.h % 5 5 w 8 | A.W.A. .x V H P L ` '.'.S.~ X.2.[.[.",
"[.* * O g '.'.L.@ 2 5 0 w 4 8 y r t c A V H G E.'.'.@.~ o.O.[.[.",
"[.$ = $   b.'.'.z.# 2 5 0 w i i p b b M c x n.'.'.V.U ! &.^ [.[.",
"[.[.= * o 3 (.'.'.k.@ % < 0 w w i p y t z n.'.'.^.T I E &.[.[.[.",
"[.[.$ = $ . g ].'.'.L.h % & : > 4 4 u [ T.'.'.`.) Z I ! Y [.[.[.",
"[.[.[.* = $   g (.'.'.'.L.k.} ] } c.U.'.'.'.Q.K x H I Y [.[.[.[.",
"[.[.[.[.= * $ . 3 b.'.'.'.'.'.'.'.'.'.'.'.N.N z A A I [.[.[.[.[.",
"[.[.[.[.[.= * $ o   s z.Y.].'.'.'.'.W.v.D 7 y b M J [.[.[.[.[.[.",
"[.[.[.[.[.[.= = $ $ O   $ 6 j k h d < > 4 i i m m [.[.[.[.[.[.[.",
"[.[.[.[.[.[.[.* = 3 * * $ o O + @ : 2 5 0 i a a [.[.[.[.[.[.[.[.",
"[.[.[.[.[.[.[.[.[.* * = = * $ $ = , 1 q q w [.[.[.[.[.[.[.[.[.[.",
"[.[.[.[.[.[.[.[.[.[.[.[.$ $ $ $ $ = , [.[.[.[.[.[.[.[.[.[.[.[.[.",
"[.[.[.[.[.[.[.[.[.[.[.[.[.[.[.[.[.[.[.[.[.[.[.[.[.[.[.[.[.[.[.[."
};
