/* XPM */
static char *bitcoin64[] = {
/* columns rows colors chars-per-pixel */
"64 64 223 2 ",
"   c #073561",
".  c #093663",
"X  c #0D3A65",
"o  c #093F68",
"O  c #143F69",
"+  c #05436A",
"@  c #09426A",
"#  c #054A6E",
"$  c #09496E",
"%  c #14416A",
"&  c #1B456E",
"*  c #0C4D71",
"=  c #054E71",
"-  c #1B4671",
";  c #1B4B74",
":  c #1D4C78",
">  c #0B5375",
",  c #0C5C7B",
"<  c #055A78",
"1  c #155476",
"2  c #195276",
"3  c #195679",
"4  c #165D7C",
"5  c #18597A",
"6  c #31587D",
"7  c #2C5279",
"8  c #0D627F",
"9  c #03627D",
"0  c #16617F",
"q  c #195E81",
"w  c #046B83",
"e  c #0B6B84",
"r  c #006780",
"t  c #166581",
"y  c #196285",
"u  c #156C85",
"i  c #186D89",
"p  c #027286",
"a  c #0C7087",
"s  c #047589",
"d  c #027C8D",
"f  c #0A7D8E",
"g  c #0E7289",
"h  c #13748A",
"j  c #127A8E",
"k  c #1E768D",
"l  c #127E91",
"z  c #167792",
"x  c #296685",
"c  c #3C6284",
"v  c #3D6C8B",
"b  c #336685",
"n  c #25758D",
"m  c #367992",
"M  c #48698A",
"N  c #467B95",
"B  c #577895",
"V  c #4C718F",
"C  c #00818F",
"Z  c #018491",
"A  c #0C8393",
"S  c #028A95",
"D  c #0E8997",
"F  c #0F8E9A",
"G  c #018F98",
"H  c #118394",
"J  c #108996",
"K  c #148399",
"L  c #118C99",
"P  c #00949B",
"I  c #0E939D",
"U  c #019A9F",
"Y  c #10919C",
"T  c #2C8296",
"R  c #2C8D9D",
"E  c #388C9E",
"W  c #22919E",
"Q  c #019DA0",
"!  c #0D9BA2",
"~  c #0E96A1",
"^  c #1194A4",
"/  c #109DA9",
"(  c #2F94A2",
")  c #209BA4",
"_  c #3B94A3",
"`  c #02A4A5",
"'  c #0CA2A6",
"]  c #0CA6A9",
"[  c #01ACAA",
"{  c #0AACAC",
"}  c #00B3AE",
"|  c #0AB1AF",
" . c #0EABB1",
".. c #02B6B1",
"X. c #09B5B2",
"o. c #05BDB5",
"O. c #08BBB5",
"+. c #09BEBA",
"@. c #1AACAE",
"#. c #2BA6AC",
"$. c #39A5AD",
"%. c #28B8B7",
"&. c #32BCBB",
"*. c #3AB8B9",
"=. c #36AFB3",
"-. c #65839E",
";. c #448EA1",
":. c #5A8AA1",
">. c #4A9DAB",
",. c #6B8EA6",
"<. c #678BA4",
"1. c #6896AA",
"2. c #789DB1",
"3. c #7391A9",
"4. c #54A2AF",
"5. c #58B4BB",
"6. c #49AEB5",
"7. c #61AAB5",
"8. c #6EABB8",
"9. c #77A7B7",
"0. c #68B3BC",
"q. c #7EB1BE",
"w. c #01C1B6",
"e. c #06C4BA",
"r. c #09C1BB",
"t. c #04CABE",
"y. c #16C6BD",
"u. c #00D0BF",
"i. c #2BC1BD",
"p. c #05CEC1",
"a. c #09CAC4",
"s. c #03D3C3",
"d. c #02D9C6",
"f. c #06D5C9",
"g. c #03DDC9",
"h. c #0AD2C5",
"j. c #17D5C7",
"k. c #11CDC1",
"l. c #25CCC3",
"z. c #37C8C3",
"x. c #25D6C9",
"c. c #3DDDD1",
"v. c #01E3CD",
"b. c #00E9CF",
"n. c #02E6D2",
"m. c #00EDD3",
"M. c #0EECD4",
"N. c #06EBD6",
"B. c #19EBD5",
"V. c #17EED7",
"C. c #00F1D6",
"Z. c #00F4DA",
"A. c #00F8DD",
"S. c #25E5D3",
"D. c #37E4D5",
"F. c #27F0DA",
"G. c #00FEE4",
"H. c #4AC9C6",
"J. c #59C7C7",
"K. c #5BD7D1",
"L. c #65C3C5",
"P. c #76C6CA",
"I. c #68DBD5",
"U. c #6FD5D3",
"Y. c #49E6D8",
"T. c #56E8DB",
"R. c #63E8DD",
"E. c #79E0DA",
"W. c #5FF3E3",
"Q. c #6DEDE1",
"!. c #63EFE1",
"~. c #65F4E4",
"^. c #96A9BC",
"/. c #97B1C1",
"(. c #9DAFC1",
"). c #A8B8C8",
"_. c #8CC3CB",
"`. c #89D8D7",
"'. c #9BDEDD",
"]. c #99C7CF",
"[. c #A8C3CE",
"{. c #B3C1CF",
"}. c #B6CBD5",
"|. c #A2D2D7",
" X c #B2D4DA",
".X c #BCD4DB",
"XX c #93F5EB",
"oX c #9AF5EB",
"OX c #80F0E5",
"+X c #A7EAE6",
"@X c #B9E6E7",
"#X c #BCF2EE",
"$X c #ACF9F0",
"%X c #B3F7F0",
"&X c #C2D5DD",
"*X c #C3CED9",
"=X c #C8DDE2",
"-X c #D5DDE5",
";X c #CCECED",
":X c #C7E6E8",
">X c #D3E1E7",
",X c #D7E7EB",
"<X c #DCEFF1",
"1X c #D4EFF0",
"2X c #CDF2F1",
"3X c #C7F4F1",
"4X c #D3F6F4",
"5X c #DBF3F3",
"6X c #DCFCF9",
"7X c #D5F9F6",
"8X c #C0F2EF",
"9X c #E5EBEF",
"0X c #E0E7EC",
"qX c #EBF4F6",
"wX c #E4FBF8",
"eX c #EDFAFA",
"rX c #E8F8F8",
"tX c #F1F4F6",
"yX c #F4F7F9",
"uX c #F3FCFB",
"iX c #FFFFFF",
"pX c #E4EFF2",
"aX c None",
/* pixels */
"aXaXaXaXaXaXaXaXaXaXaXaXaXaXaXaXaXaXaXaXaXaXaXaXaXaXn.m.m.C.m.m.m.C.C.m.aXaXaXaXaXaXaXaXaXaXaXaXaXaXaXaXaXaXaXaXaXaXaXaXaXaXaXaX",
"aXaXaXaXaXaXaXaXaXaXaXaXaXaXaXaXaXaXaXaXaXaXg.g.n.G.Z.Z.C.C.m.m.C.C.Z.G.G.G.Z.C.C.aXaXaXaXaXaXaXaXaXaXaXaXaXaXaXaXaXaXaXaXaXaXaX",
"aXaXaXaXaXaXaXaXaXaXaXaXaXaXaXaXaXaXaXh.s.n.n.v.g.g.v.v.b.b.b.N.m.m.m.m.m.m.m.Z.G.G.C.Z.aXaXaXaXaXaXaXaXaXaXaXaXaXaXaXaXaXaXaXaX",
"aXaXaXaXaXaXaXaXaXaXaXaXaXaXaXaXaXp.h.g.s.h.h.s.f.g.g.g.v.b.b.N.m.m.m.m.m.m.m.m.m.m.Z.G.Z.Z.aXaXaXaXaXaXaXaXaXaXaXaXaXaXaXaXaXaX",
"aXaXaXaXaXaXaXaXaXaXaXaXaXaXaXr.e.h.e.e.t.p.u.s.s.g.d.g.v.v.v.b.b.m.C.m.m.m.m.m.m.m.C.m.m.G.Z.Z.aXaXaXaXaXaXaXaXaXaXaXaXaXaXaXaX",
"aXaXaXaXaXaXaXaXaXaXaXaXaXaX+.a.r.r.e.e.t.t.t.s.h.s.d.g.g.g.v.v.b.m.b.m.C.m.m.m.m.m.m.m.m.m.C.G.Z.aXaXaXaXaXaXaXaXaXaXaXaXaXaXaX",
"aXaXaXaXaXaXaXaXaXaXaXaXX.r.+.X.O.w.O.r.r.t.t.t.s.s.s.d.d.d.d.v.v.b.b.C.m.m.m.m.m.m.m.m.m.m.C.b.A.G.C.aXaXaXaXaXaXaXaXaXaXaXaXaX",
"aXaXaXaXaXaXaXaXaXaXaX .+.| | X.X.O.O.r.e.r.e.t.e.t.s.x.Y.T.R.Q.Q.T.Y.F.m.m.m.m.m.m.m.C.m.m.b.C.m.m.G.Z.aXaXaXaXaXaXaXaXaXaXaXaX",
"aXaXaXaXaXaXaXaXaXaX{ X.] {  .X.X.X.O.O.w.o.o.l.R.+X5XiXiXiXiXiXiXiXiXiX6XXXM.m.m.m.m.m.m.m.m.b.m.m.m.G.Z.aXaXaXaXaXaXaXaXaXaXaX",
"aXaXaXaXaXaXaXaXaX]  .' ] { { { | X.X.} o.H.+XuXiXiXiXiXiXiXiXiXiXiXiXiXiXiX$Xm.m.m.m.C.m.m.m.C.m.m.m.m.G.Z.aXaXaXaXaXaXaXaXaXaX",
"aXaXaXaXaXaXaXaX! ] ! ] ] ] ] { { } ` H.#XiXiXiXiXiXiXiXiXiXiXiXiXiXiXiXiXiXuXM.m.m.m.m.m.m.m.m.m.m.m.m.m.G.Z.aXaXaXaXaXaXaXaXaX",
"aXaXaXaXaXaXaXI / ! ! ! ' ] ] ] ` | '.iXiXiXiXiXiXiXiXiXiXiXiXiXiXiXiXiXiXiXwXN.m.m.m.m.m.C.b.m.m.m.m.m.m.m.G.m.aXaXaXaXaXaXaXaX",
"aXaXaXaXaXaXF / I I I ! ! ' ' U *.4XiXiXiXiXiXiXiXiXiXiXwX2X#X%X#X4XeXiXiXeXY.v.b.m.m.b.m.V.F.N.m.m.m.m.m.m.m.G.m.aXaXaXaXaXaXaX",
"aXaXaXaXaXaX^ F I I I I I ' P J.iXiXiXiXiXiXiXiXyX@XI.z.y.e.t.t.t.s.h.D.Y.S.g.v.b.b.m.V.$XiXiX6X~.m.m.m.m.m.m.C.G.aXaXaXaXaXaXaX",
"aXaXaXaXaXJ L J Y I I I I G L.iXiXiXiXiXiXiXeX`.i.....o.w.e.t.t.p.s.s.s.s.g.g.v.v.v.v.7XiXiXiXiXiXW.b.C.m.m.m.m.Z.C.aXaXaXaXaXaX",
"aXaXaXaXj Y H J J J F Y G 5.iXiXiXiXiXiXiX'.@.[ } ..O.O.r.e.e.e.t.p.t.s.s.d.g.g.v.v.Q.iXiXiXiXiXiX6XN.m.m.m.m.m.m.G.m.aXaXaXaXaX",
"aXaXaXaXH H H H D J L Z $.iXiXiXiXiXiXeXJ.` ` | | | O.O.O.r.e.e.e.t.u.h.s.s.d.d.g.g.XXiXiXiXiXiXiXiXV.b.m.m.m.C.m.C.C.aXaXaXaXaX",
"aXaXaXh K j j H H H A Y <XiXiXiXiXiX5X#.U ] { { | | | O.O.O.O.r.e.e.t.u.h.s.s.d.d.s.$XiXiXiXiXiXiXuXV.m.m.m.m.m.m.m.G.m.aXaXaXaX",
"aXaXaXz h j j j A H s |.iXiXiXiXiXpX#.U ' ' ] { { | | X.X.O.O.w.r.r.e.t.t.s.s.s.s.g.wXiXiXiXiXiXiXoXb.C.m.m.m.m.m.m.C.Z.aXaXaXaX",
"aXaXu z h j j j l d >.iXiXiXiXiXeX#.G I ! ' ' ] ] { | | | O.O.O.e.r.r.r.t.t.t.s.t.T.iXiXiXiXiXiX#XM.m.m.m.m.m.m.m.m.m.G.m.aXaXaX",
"aXaXu h i h h j j s :XiXiXiXiXiX5.S I I ! ' ' ] ] ] { | | X.X.o.O.r.e.e.e.t.t.t.j.wXiXiX4XoXE.T.b.b.m.m.m.m.m.m.m.m.m.Z.m.aXaXaX",
"aXaXi u u i h h w >.iXiXiXiXiX|.Z I I I I ! ! ! ' ] ] { [ [ [ [ } ..O.w.e.w.w.x.2XiX2XY.d.d.v.v.b.b.m.b.m.m.m.m.m.m.m.m.G.aXaXaX",
"aXt i 0 u h h h w .XiXiXiXiXuXW Z J F I I ! ! ! ' ' ` ` ] &.J.U.J.i.O.O.o.l.E.eXiX#Xt.u.d.d.g.g.v.v.b.v.m.m.m.m.C.m.m.m.G.m.aXaX",
"aX4 u 0 0 0 h 8 T uXiXiXiXiX_.s J L I I I I I ! ! U ' P.4XiXiXiXiXiXwX2X4XiXiXiXwXy.t.h.s.h.d.g.g.v.v.M.B.b.m.m.m.m.m.m.Z.m.aXaX",
"aXy 4 0 0 0 u 9 9.iXiXiXiXuXR f J J J J F I I I P #.;XiXiXiXiXiXiXiXiXiXiXiXiXiXI.w.t.s.h.s.s.d.f.d.R.wXuX$XM.b.m.m.m.m.C.C.aXaX",
"aXy 4 4 0 0 0 9  XiXiXiXiX.Xp H H H J J F I Y G #.eXiXiXiXiXiXiXiXiXiXiXiXiXiXuXy.e.e.t.t.u.s.s.d.S.iXiXiXiXXXb.m.m.m.m.m.G.aXaX",
"2 q 5 4 0 0 0 0 9XiXiXiXiX8.p j H H H J J J F F ,XiXiXiXiXiXiXiXiXiXiXiXiXiXiX3Xw.w.e.e.t.h.t.h.u.R.iXiXiXiX6Xb.m.m.m.m.m.G.aXaX",
"2 5 2 5 5 0 9 m iXiXiXiXiXE p j h j H H J J C P.iXiXiXiXiXiXiXiXiXiXiXiXiXiXiX8X..w.e.e.e.t.h.u.t.D.iXiXiXiXuXB.b.m.m.m.m.G.m.aX",
"; 3 2 1 3 4 > :.iXiXiXiXqXk a h j j H H H A D <XiXiXiXiXiXiXiXiXiXiXiXiXiXiXiX1XO.o.w.r.r.t.t.t.t.j.eXiXiXiXiXD.v.n.m.m.m.A.m.aX",
"- 2 2 2 5 1 > 1.iXiXiXiX>Xe u h j j j j H f _ iXiXiXiXiXiXiXiXiXiXiXiXiXiXiXiXiXi...O.r.r.r.e.t.t.s.7XiXiXiXiXT.g.v.v.m.m.Z.m.aX",
"- ; ; 2 2 2 # 2.iXiXiXiX&X8 u h h h h H j d 7.iXiXiXiXiXiXiXiXiXiXiXiXiXiXiXiXiXJ.} O.O.r.w.e.t.t.t.3XiXiXiXiXR.d.v.v.n.m.C.m.aX",
"& - ; 2 2 2 # 2.iXiXiXiX.X< u u i h h j j p 0.iXiXiXiXiXiXiXiXiXiXiXiXiXiXiXiXiXJ.} | O.O.O.w.e.e.e.8XiXiXiXiXR.d.v.v.v.b.m.m.aX",
"& & & 2 ; 2 $ 2.iXiXiXiX&X, t u u u h h h s 7.iXiXiXiXiXiXiXiXiXiXiXiXiXiXiXiXiXH.` | X.X.w.r.r.w.e.2XiXiXiXiXT.u.d.g.v.v.m.b.aX",
"& & & & - ; @ ,.iXiXiXiX>X8 0 t u u h i h a E iXiXiXiXiXiXiXiXiXiXiXiXiXiXiXiXiX%.[ | | X.X.O.w.w.r.5XiXiXiXiXT.u.d.g.g.v.N.n.aX",
"& ; & & & & @ B iXiXiXiXqXy 0 t 0 u u u h g h <XiXiXiXiXiXiXiXiXiXiXiXiXiXiXiX:X` { | | | X.O.O.w.i.eXiXiXiXiXc.u.h.d.g.g.N.v.aX",
"& & & & & - % c iXiXiXiXiXN > 0 0 u u u h h w 8.iXiXiXiXiXiXiXiXiXiXiXiXiXiXiXL.Q { ] { | | X.O...i.iXiXiXiXuXj.s.s.s.d.g.C.g.aX",
"aX: & & & & % - ,XiXiXiXiX2.# 4 0 0 0 u u u u g >XiXiXiXiXiXiXiXiXiXiXiXiXiX@XQ ' ] ] { | | | | } E.iXiXiXiX2Xt.t.s.h.s.s.C.aXaX",
"aX: & & & & & X {.iXiXiXiX.X# 4 0 0 0 u u u i w T pXiXiXiXiXiXiXiXiXiXiXiX<X) U ' ' ' ] ] { | } } ;XiXiXiXiX+Xw.t.p.p.s.s.N.aXaX",
"aX& & & & & & . 3.iXiXiXiXiXb > 5 0 0 0 0 u u u w T =XiXiXiXiXiXiXiXiXiX:X) P ~ ' ' ' ' ] { { [ i.iXiXiXiXiXK.w.t.t.p.p.s.g.aXaX",
"aX& - & & & & O 7 uXiXiXiXiX^.+ 5 5 0 0 y t u u u w a 8.=XiXiXiXiXiX:X0.S P Y Y I I ' ' ' ] ] ` '.iXiXiXiXeXy.o.r.t.t.p.f.h.aXaX",
"aX& : & & & & & . {.iXiXiXiXtXx * 5 4 4 0 0 0 0 u u u 9 g E 4.7.>.( A C D F Y I I I ' ' ] ] Q %.uXiXiXiXiX+X} o.o.r.e.t.v.p.aXaX",
"aXaX; - & & & & X V iXiXiXiXiX{.+ 2 3 5 5 0 0 0 t u u h h a p p s s A H J J F I I I I I ! ' U @XiXiXiXiXiXz.} O.o.e.e.r.f.aXaXaX",
"aXaX- & & & & & & X *XiXiXiXiXiX,.+ 2 5 5 0 0 0 t u u u h h h h j j H H H J J F I I I ' ~ P L.iXiXiXiXiX@X[ O.O.O.O.r.p.r.aXaXaX",
"aXaX& : & & & & & X M iXiXiXiXiXyXv + 5 3 0 0 0 0 0 t u u h h h j j j H H J J J F Y Y I G =.iXiXiXiXiXiX&.[ | O.O.O.O.f.r.aXaXaX",
"aXaXaX- & & & & & &   (.iXiXiXiXiX9X6 + 3 3 5 0 0 0 t u u u u h h j j H j H H J J F Y Z #.qXiXiXiXiXiX`.` { | | X.X.o.r.aXaXaXaX",
"aXaXaX& ; & & & & & O & >XiXiXiXiXiXpXM + 2 3 3 4 4 0 0 t u u h i h h j j H H H J F C $.qXiXiXiXiXiX;X' ] ] { | X.X.p.O.aXaXaXaX",
"aXaXaXaX- & & & & & - X M tXiXiXiXiXiXtX,.# $ 5 5 4 4 0 0 u t u h h h h h H H H f C 0.iXiXiXiXiXiXuX#.` ] ] { { { X.O.aXaXaXaXaX",
"aXaXaXaX& : & & & & & &   B iXiXiXiXiXiXiX{.6 + * 5 4 4 0 0 u t u u h h h j p p R  XiXiXiXiXiXiXiX6.P ! ' ] { { { r.| aXaXaXaXaX",
"aXaXaXaXaX- - & & & & & & . -.iXiXiXiXiXiXiXyX/.v $ # * 5 4 0 t t t e e r w E ].uXiXiXiXiXiXiXiX5.G I ' ' ' ' ] X.{ aXaXaXaXaXaX",
"aXaXaXaXaXaX: & & & & & & &   B tXiXiXiXiXiXiXiXiX.X2.N x 4 , , 8 u n ;.q.=XiXiXiXiXiXiXiXiXqX6.Z I I I ! ! ' ] X.aXaXaXaXaXaXaX",
"aXaXaXaXaXaX& : & & & & & & & . c -XiXiXiXiXiXiXiXiXiXiXqX,X=X&X=X,XtXiXiXiXiXiXiXiXiXiXiX:X( Z F I I ! ! ! / X.] aXaXaXaXaXaXaX",
"aXaXaXaXaXaXaX& : & & & & & & & . & ^.iXiXiXiXiXiXiXiXiXiXiXiXiXiXiXiXiXiXiXiXiXiXiXiXuX/.H f J D I I I I !  .! aXaXaXaXaXaXaXaX",
"aXaXaXaXaXaXaXaX& : & & & & & & & O . M }.iXiXiXiXiXiXiXiXiXiXiXiXiXiXiXiXiXiXiXiXiX X_ p f H H A J F I I ] ! aXaXaXaXaXaXaXaXaX",
"aXaXaXaXaXaXaXaXaX& : & & & & & & & & X X M ).tXiXiXiXiXiXiXiXiXiXiXiXiXiXiXiXqX[.E w w j l H H J J L L / ^ aXaXaXaXaXaXaXaXaXaX",
"aXaXaXaXaXaXaXaXaXaX- : & & & & & & & & & X . 7 -.).-XyXiXiXiXiXiXiXiXyX>X[.1.n 9 w h h j j l l H J J ^ L aXaXaXaXaXaXaXaXaXaXaX",
"aXaXaXaXaXaXaXaXaXaXaX- : & & & & & & & & & & O X . & 6 V -.,.3.1.<.N x , < < 0 u u u h h h j l j H ^ J aXaXaXaXaXaXaXaXaXaXaXaX",
"aXaXaXaXaXaXaXaXaXaXaXaX- ; - - & & & & & & & & & & % % X @ @ @ @ $ > 1 4 0 0 0 t u u u h h h l K K H aXaXaXaXaXaXaXaXaXaXaXaXaX",
"aXaXaXaXaXaXaXaXaXaXaXaXaXaX- : & & & & & & & & & & & & & & - ; ; 2 2 2 3 4 0 0 t t u u i i h K H aXaXaXaXaXaXaXaXaXaXaXaXaXaXaX",
"aXaXaXaXaXaXaXaXaXaXaXaXaXaXaX- - : - - & & & & & & & & & & & - ; 2 2 1 3 5 4 4 0 t t t h z h j aXaXaXaXaXaXaXaXaXaXaXaXaXaXaXaX",
"aXaXaXaXaXaXaXaXaXaXaXaXaXaXaXaXaX- - : - - & & & & & & & & & & - ; ; 2 2 1 4 3 4 t y z u u aXaXaXaXaXaXaXaXaXaXaXaXaXaXaXaXaXaX",
"aXaXaXaXaXaXaXaXaXaXaXaXaXaXaXaXaXaXaX- - : : - & & & & & & & & - - - : 2 2 5 4 y y t t aXaXaXaXaXaXaXaXaXaXaXaXaXaXaXaXaXaXaXaX",
"aXaXaXaXaXaXaXaXaXaXaXaXaXaXaXaXaXaXaXaXaXaX- - & ; ; ; ; - - - & - : 2 3 3 3 3 5 aXaXaXaXaXaXaXaXaXaXaXaXaXaXaXaXaXaXaXaXaXaXaX",
"aXaXaXaXaXaXaXaXaXaXaXaXaXaXaXaXaXaXaXaXaXaXaXaXaXaXaX- & & & & & & & - aXaXaXaXaXaXaXaXaXaXaXaXaXaXaXaXaXaXaXaXaXaXaXaXaXaXaXaX",
"aXaXaXaXaXaXaXaXaXaXaXaXaXaXaXaXaXaXaXaXaXaXaXaXaXaXaXaXaXaXaXaXaXaXaXaXaXaXaXaXaXaXaXaXaXaXaXaXaXaXaXaXaXaXaXaXaXaXaXaXaXaXaXaX"
};
